HIERARCHY
ROOT Hips
{
 OFFSET 0.000000 0.000000 0.000000
 CHANNELS 6 Xposition Yposition Zposition Yrotation Xrotation Zrotation
 JOINT Chest
 {
  OFFSET 0.000000 9.585900 0.002600
  CHANNELS 3 Yrotation Xrotation Zrotation
  JOINT Chest2
  {
   OFFSET 0.000000 9.601200 -0.005300
   CHANNELS 3 Yrotation Xrotation Zrotation
   JOINT Chest3
   {
    OFFSET 0.000000 9.561800 0.000000
    CHANNELS 3 Yrotation Xrotation Zrotation
    JOINT Chest4
    {
     OFFSET 0.000000 9.552100 0.000000
     CHANNELS 3 Yrotation Xrotation Zrotation
     JOINT Neck
     {
      OFFSET 0.000000 14.453000 0.000000
      CHANNELS 3 Yrotation Xrotation Zrotation
      JOINT Head
      {
       OFFSET 0.000000 8.936500 -0.011300
       CHANNELS 3 Yrotation Xrotation Zrotation
       End Site
       {
        OFFSET 0.000000 17.073600 -0.006000
       }
      }
     }
     JOINT RightCollar
     {
      OFFSET -2.921100 9.558500 0.000000
      CHANNELS 3 Yrotation Xrotation Zrotation
      JOINT RightShoulder
      {
       OFFSET -13.519700 0.000000 0.000000
       CHANNELS 3 Yrotation Xrotation Zrotation
       JOINT RightElbow
       {
        OFFSET 0.000000 -29.696600 0.000000
        CHANNELS 3 Yrotation Xrotation Zrotation
        JOINT RightWrist
        {
         OFFSET 0.000000 -24.004700 0.000000
         CHANNELS 3 Yrotation Xrotation Zrotation
         End Site
         {
          OFFSET 0.000000 -17.728500 0.000000
         }
        }
       }
      }
     }
     JOINT LeftCollar
     {
      OFFSET 2.921100 9.558500 0.000000
      CHANNELS 3 Yrotation Xrotation Zrotation
      JOINT LeftShoulder
      {
       OFFSET 13.519700 0.000000 0.000000
       CHANNELS 3 Yrotation Xrotation Zrotation
       JOINT LeftElbow
       {
        OFFSET 0.000000 -29.696600 0.000000
        CHANNELS 3 Yrotation Xrotation Zrotation
        JOINT LeftWrist
        {
         OFFSET 0.000000 -24.004700 0.000000
         CHANNELS 3 Yrotation Xrotation Zrotation
         End Site
         {
          OFFSET 0.000000 -17.728500 0.000000
         }
        }
       }
      }
     }
    }
   }
  }
 }
 JOINT RightHip
 {
  OFFSET -7.771700 -0.012900 -0.001300
  CHANNELS 3 Yrotation Xrotation Zrotation
  JOINT RightKnee
  {
   OFFSET 0.000000 -40.869800 0.001200
   CHANNELS 3 Yrotation Xrotation Zrotation
   JOINT RightAnkle
   {
    OFFSET 0.000000 -39.717900 0.002100
    CHANNELS 3 Yrotation Xrotation Zrotation
    JOINT RightToe
    {
     OFFSET 0.000000 -4.965400 11.033500
     CHANNELS 3 Yrotation Xrotation Zrotation
     End Site
     {
      OFFSET 0.000000 -1.423100 5.872300
     }
    }
   }
  }
 }
 JOINT LeftHip
 {
  OFFSET 7.771700 -0.012900 -0.001300
  CHANNELS 3 Yrotation Xrotation Zrotation
  JOINT LeftKnee
  {
   OFFSET 0.000000 -40.869800 0.001200
   CHANNELS 3 Yrotation Xrotation Zrotation
   JOINT LeftAnkle
   {
    OFFSET 0.000000 -39.717900 0.002100
    CHANNELS 3 Yrotation Xrotation Zrotation
    JOINT LeftToe
    {
     OFFSET 0.000000 -4.965400 11.033500
     CHANNELS 3 Yrotation Xrotation Zrotation
     End Site
     {
      OFFSET 0.000000 -1.423100 5.872300
     }
    }
   }
  }
 }
}
MOTION
Frames: 16
Frame Time: 0.008333
-74.691990 48.129474 21.176808 179.288619 -32.618399 -2.873242 0.455483 16.219298 2.987354 -0.201061 9.296424 1.692467 -0.375732 11.652278 2.014011 -0.271458 9.311144 1.642758 -1.434519 16.028892 -1.485532 -2.137020 -6.035949 -2.250258 5.144126 3.419854 -4.077002 -1.874119 -15.595074 -10.742467 63.876865 -69.868661 -47.383846 12.365390 4.338611 -37.403256 -3.644004 0.264455 -2.479082 3.073992 -21.978460 -4.143323 -85.212985 -48.715201 56.810228 -9.905666 8.733624 39.394487 30.546423 -46.615650 -28.155400 -140.334459 77.641018 -127.871236 3.365971 -20.450040 1.084024 -0.292577 -0.328918 -0.360082 -12.510463 -52.850685 13.923349 84.955616 81.001437 83.080169 -5.621412 -4.312437 -6.724965 0.429772 0.336913 0.012096
-74.675236 48.136951 21.166290 179.263497 -32.606012 -2.891526 0.415413 16.228926 2.963761 -0.199950 9.290769 1.679721 -0.360209 11.651536 2.001585 -0.233369 9.305606 1.656528 -1.484475 15.981542 -1.499837 -2.165270 -6.126266 -2.233426 5.141705 3.401057 -4.092782 -1.818139 -15.645976 -10.976102 63.117135 -69.965905 -46.472066 12.367155 4.183795 -37.612133 -3.674519 0.234273 -2.504303 2.977476 -22.087635 -3.995688 -85.308509 -48.623308 56.765637 -10.021974 8.997642 39.127488 30.423000 -46.657691 -28.114188 -140.225415 77.643242 -127.754988 3.331144 -20.465042 1.098614 -0.238805 -0.309765 -0.361693 -12.637665 -52.836432 13.988128 85.112718 80.962910 83.282197 -5.570507 -4.300847 -6.778750 0.391842 0.316334 0.008210
-74.655320 48.143731 21.157391 179.183255 -32.582777 -2.883108 0.422017 16.228355 2.943815 -0.188017 9.284799 1.669281 -0.355094 11.648022 1.990572 -0.194499 9.299593 1.667444 -1.536882 15.934434 -1.514807 -2.197104 -6.214853 -2.224284 5.056583 3.341716 -4.187052 -1.722774 -15.655115 -11.111812 62.227773 -70.107242 -45.424380 12.291412 4.040141 -37.844753 -3.704534 0.202450 -2.529697 2.886002 -22.196352 -3.844398 -85.408856 -48.528196 56.717753 -10.140367 9.278061 38.818117 30.368400 -46.707267 -28.080307 -140.168236 77.659003 -127.690676 3.310445 -20.466583 1.134069 -0.227659 -0.305235 -0.383314 -12.743198 -52.833298 14.081610 85.282287 80.928232 83.484080 -5.552808 -4.311401 -6.844192 0.402750 0.304775 -0.010408
-74.638104 48.148442 21.151465 179.113385 -32.535570 -2.850569 0.408287 16.205671 2.893667 -0.181315 9.280555 1.656221 -0.311460 11.636228 2.005225 -0.220170 9.300008 1.638219 -1.557085 15.887047 -1.512917 -2.229624 -6.300903 -2.225338 5.041948 3.286472 -4.227448 -1.676694 -15.661691 -11.258865 61.240072 -70.272073 -44.285195 12.201021 3.905956 -38.086708 -3.704508 0.166777 -2.537832 2.802276 -22.294630 -3.693641 -85.507728 -48.431188 56.668149 -10.260801 9.575448 38.453179 30.359320 -46.760830 -28.103031 -140.117370 77.674653 -127.625512 3.283235 -20.473635 1.138968 -0.217185 -0.293602 -0.372908 -12.840360 -52.858255 14.159376 85.425501 80.890544 83.605490 -5.493434 -4.304053 -6.853310 0.354278 0.293838 -0.044158
-74.609855 48.155243 21.143346 179.035570 -32.506965 -2.868254 0.416391 16.201256 2.901355 -0.170542 9.274791 1.647257 -0.326154 11.631638 1.985860 -0.245906 9.294944 1.606785 -1.520689 15.842734 -1.498323 -2.260374 -6.382159 -2.236997 5.105195 3.236302 -4.238919 -1.658624 -15.660678 -11.395983 60.238471 -70.426562 -43.154278 12.075629 3.770476 -38.337096 -3.648388 0.128483 -2.534410 2.722577 -22.372490 -3.545421 -85.598372 -48.338355 56.618690 -10.386320 9.895376 38.052636 30.308482 -46.826609 -28.039556 -140.051846 77.685751 -127.543145 3.273200 -20.461476 1.144514 -0.222842 -0.300890 -0.368127 -12.995921 -52.853649 14.311035 85.606858 80.870871 83.828718 -5.473359 -4.322435 -6.976827 0.356490 0.305573 0.041234
-74.579550 48.161640 21.135916 178.941861 -32.475148 -2.881031 0.437146 16.193594 2.912095 -0.222032 9.282278 1.607502 -0.279434 11.611964 1.990815 -0.240148 9.286250 1.597817 -1.520187 15.802976 -1.507145 -2.287364 -6.456154 -2.258304 5.139824 3.190759 -4.270076 -1.640757 -15.646615 -11.507060 59.320259 -70.535001 -42.137639 11.921781 3.638529 -38.601343 -3.619926 0.089771 -2.552495 2.641478 -22.427616 -3.402613 -85.674518 -48.250809 56.575630 -10.531516 10.236359 37.641511 30.276519 -46.899019 -27.973097 -139.998722 77.697625 -127.472888 3.270610 -20.449374 1.147632 -0.225250 -0.309229 -0.362812 -13.134266 -52.852364 14.463599 85.787154 80.854326 84.055946 -5.461657 -4.343278 -7.065332 0.378179 0.303470 0.050707
-74.551092 48.166461 21.130579 178.844591 -32.429134 -2.874809 0.454665 16.173617 2.902934 -0.198876 9.268138 1.612960 -0.258218 11.603346 1.993462 -0.279884 9.276294 1.579194 -1.536260 15.767274 -1.526108 -2.310232 -6.522556 -2.287512 5.160001 3.150003 -4.306022 -1.615165 -15.622638 -11.590469 58.549808 -70.580057 -41.302970 11.772592 3.527751 -38.878623 -3.606361 0.053007 -2.574658 2.559859 -22.464684 -3.271199 -85.742618 -48.161756 56.544953 -10.698967 10.592360 37.230707 30.273520 -46.977988 -27.937828 -139.978943 77.714049 -127.437189 3.279850 -20.441298 1.112853 -0.238737 -0.314218 -0.325678 -13.239852 -52.868520 14.586906 85.919531 80.836253 84.220690 -5.432568 -4.357660 -7.100696 0.377196 0.304153 0.027005
-74.523719 48.170774 21.125770 178.766733 -32.379777 -2.868654 0.454898 16.152577 2.884182 -0.218554 9.261170 1.594585 -0.256561 11.586002 1.982941 -0.258620 9.264482 1.578364 -1.550952 15.735426 -1.548849 -2.329156 -6.581840 -2.324336 5.179262 3.115768 -4.339053 -1.574410 -15.593692 -11.648571 57.946989 -70.563380 -40.674607 11.654684 3.458028 -39.150516 -3.595706 0.021161 -2.592989 2.482576 -22.488314 -3.154656 -85.809530 -48.068232 56.527057 -10.869013 10.953511 36.827448 30.263465 -47.058831 -27.913299 -139.989481 77.732535 -127.434705 3.249344 -20.423339 1.131720 -0.216881 -0.328934 -0.331423 -13.341975 -52.887764 14.687716 86.009158 80.820134 84.345299 -5.383660 -4.378643 -7.176311 0.363451 0.315847 0.043808
-74.502029 48.173503 21.122717 178.699894 -32.317484 -2.833053 0.438060 16.119727 2.831317 -0.238610 9.252364 1.576732 -0.258696 11.566177 1.971214 -0.195921 9.262122 1.591797 -1.609304 15.695986 -1.584178 -2.345678 -6.634584 -2.369641 5.149430 3.079407 -4.379156 -1.516992 -15.567278 -11.682130 57.493375 -70.496167 -40.228606 11.577138 3.441812 -39.389461 -3.633276 -0.015242 -2.615292 2.411088 -22.500516 -3.049869 -85.868221 -47.979751 56.517390 -11.028888 11.301722 36.439345 30.277986 -47.137046 -27.940420 -140.030770 77.755987 -127.468244 3.207814 -20.408072 1.147783 -0.174224 -0.341153 -0.331484 -13.407294 -52.926845 14.741038 86.066329 80.791429 84.396536 -5.327686 -4.387176 -7.135690 0.317613 0.327446 -0.014329
-74.482159 48.176207 21.119457 178.642073 -32.257688 -2.792412 0.411227 16.089247 2.768601 -0.240599 9.238805 1.569541 -0.261411 11.549293 1.962115 -0.153181 9.259602 1.598360 -1.668540 15.658393 -1.622726 -2.359354 -6.681603 -2.424407 5.111278 3.049701 -4.419605 -1.454825 -15.547318 -11.687014 57.160177 -70.395119 -39.920173 11.538113 3.485796 -39.567812 -3.674617 -0.046350 -2.632692 2.342684 -22.502750 -2.955634 -85.910938 -47.907931 56.509551 -11.176546 11.621049 36.067654 30.328018 -47.197216 -27.987026 -140.052285 77.769498 -127.486070 3.194571 -20.400355 1.177628 -0.159316 -0.347859 -0.325413 -13.454056 -52.965492 14.769979 86.101354 80.765081 84.432153 -5.255113 -4.400586 -7.162672 0.254833 0.344182 -0.004965
-74.458015 48.179682 21.115474 178.579845 -32.206716 -2.779008 0.395798 16.065062 2.736296 -0.243315 9.224751 1.562811 -0.265082 11.531709 1.953605 -0.151582 9.251298 1.587776 -1.683213 15.630417 -1.654305 -2.368184 -6.723183 -2.487882 5.111047 3.032646 -4.449637 -1.402194 -15.532103 -11.663437 56.924588 -70.276294 -39.711532 11.532924 3.584680 -39.664701 -3.675463 -0.063135 -2.638106 2.278515 -22.496703 -2.872492 -85.932939 -47.858135 56.499439 -11.313301 11.893382 35.708989 30.348290 -47.264519 -27.989069 -140.071900 77.783770 -127.501225 3.193264 -20.387899 1.208253 -0.156258 -0.358495 -0.325357 -13.518538 -52.990704 14.827919 86.127867 80.743815 84.502175 -5.229203 -4.427048 -7.206772 0.251772 0.360278 -0.007393
-74.422156 48.182388 21.114153 178.503544 -32.143743 -2.836217 0.411397 16.026293 2.783720 -0.245858 9.210310 1.555906 -0.268543 11.513644 1.944884 -0.223370 9.217663 1.562548 -1.571732 15.656802 -1.660160 -2.420359 -6.786546 -2.568166 5.182421 3.044764 -4.469686 -1.350085 -15.513839 -11.624613 56.735093 -70.155921 -39.556697 11.559102 3.723780 -39.688435 -3.605972 -0.049203 -2.639651 2.221219 -22.480891 -2.800660 -85.932866 -47.826987 56.488938 -11.448865 12.100548 35.363906 30.259105 -47.396623 -27.887961 -140.126230 77.815951 -127.504545 3.139127 -20.357565 1.124249 -0.083010 -0.377942 -0.274033 -13.637742 -53.021699 15.010763 86.190384 80.742388 84.628566 -5.215222 -4.466542 -7.244631 0.259524 0.380960 -0.020482
-74.398581 48.188513 21.106026 178.425795 -32.126137 -2.829339 0.408082 16.033245 2.763784 -0.247438 9.196076 1.548383 -0.270749 11.495901 1.935431 -0.247459 9.196035 1.548375 -1.504715 15.669241 -1.669457 -2.467082 -6.852316 -2.651977 5.252477 3.061957 -4.470159 -1.320308 -15.502474 -11.604118 56.546505 -70.046559 -39.428938 11.609229 3.890558 -39.670307 -3.583906 -0.051955 -2.637735 2.174156 -22.450496 -2.742961 -85.926664 -47.801940 56.489614 -11.592319 12.237320 35.037692 30.139614 -47.467991 -27.813222 -140.175965 77.866164 -127.607071 3.201580 -20.339364 1.140440 -0.139390 -0.391030 -0.306075 -13.703823 -53.007525 15.070198 86.316807 80.704322 84.833862 -5.249838 -4.535231 -7.297582 0.332536 0.406219 -0.082537
-74.383654 48.194240 21.097627 178.359782 -32.108160 -2.791341 0.381692 16.040852 2.705869 -0.247712 9.182304 1.541374 -0.227727 11.482870 1.943044 -0.270829 9.182522 1.537426 -1.537387 15.639806 -1.712985 -2.457406 -6.900033 -2.723823 5.275433 3.063282 -4.476829 -1.344002 -15.510885 -11.559240 56.508762 -69.981013 -39.361535 11.674722 4.132518 -39.661978 -3.610345 -0.072817 -2.635030 2.142959 -22.408966 -2.699124 -85.935428 -47.769994 56.511504 -11.737597 12.314845 34.737821 30.095590 -47.502198 -27.808490 -140.231728 77.911168 -127.704980 3.238562 -20.338138 1.215941 -0.190779 -0.389434 -0.360645 -13.732073 -53.003537 15.080162 86.443986 80.663905 84.999730 -5.244585 -4.583535 -7.348171 0.347667 0.422402 -0.076488
-74.368193 48.197217 21.093903 178.214233 -32.062045 -2.731911 0.467242 16.002868 2.697400 -0.247437 9.175527 1.538262 -0.292771 11.468795 1.916932 -0.184638 9.189430 1.547471 -1.612722 15.593426 -1.762638 -2.445871 -6.949669 -2.792765 5.126558 3.000297 -4.522527 -1.371418 -15.518305 -11.423511 56.624666 -69.880995 -39.324647 11.729550 4.360911 -39.655892 -3.684964 -0.104828 -2.635144 2.127428 -22.367391 -2.664792 -85.961062 -47.725632 56.546838 -11.870816 12.354500 34.471201 30.137578 -47.564491 -27.812027 -140.266401 77.951893 -127.764975 3.333379 -20.335672 1.229277 -0.286732 -0.390093 -0.367609 -13.720221 -53.032212 15.143522 86.578244 80.633151 85.159069 -5.259684 -4.648210 -7.395700 0.379437 0.447970 -0.003604
-74.351248 48.198439 21.093473 178.166090 -31.990859 -2.751508 0.413677 15.963103 2.678908 -0.183348 9.152200 1.557492 -0.357430 11.455962 1.895576 -0.158545 9.178216 1.542858 -1.685530 15.527097 -1.832371 -2.373375 -6.963163 -2.853954 5.081272 2.979776 -4.542338 -1.408673 -15.537096 -11.323545 56.655319 -69.758792 -39.277593 11.762940 4.517183 -39.616090 -3.700998 -0.112436 -2.637413 2.122886 -22.333195 -2.633727 -85.998174 -47.671476 56.582490 -11.981365 12.379557 34.250205 30.084701 -47.653462 -27.811434 -140.165720 77.969072 -127.625764 3.320805 -20.375284 1.230441 -0.195059 -0.334484 -0.401440 -13.820181 -53.080363 15.265373 86.686111 80.614944 85.271341 -5.181813 -4.642722 -7.397056 0.304036 0.426855 -0.002796
